<?xml version="1.0" standalone="no"?><!DOCTYPE svg PUBLIC "-//W3C//DTD SVG 1.1//EN" "http://www.w3.org/Graphics/SVG/1.1/DTD/svg11.dtd"><svg t="1560611613433" class="icon" style="" viewBox="0 0 1024 1024" version="1.1" xmlns="http://www.w3.org/2000/svg" p-id="9670" xmlns:xlink="http://www.w3.org/1999/xlink" width="200" height="200"><defs><style type="text/css"></style></defs><path d="M219.211223 815.522516h108.989605a31.438872 31.438872 0 0 1 27.799061 10.873937c15.673938 20.041712 9.099529 64.538408 5.118485 80.91756-42.085321 91.768748-176.462612 49.069209-182.195315 47.135559l-14.490999 42.881529a286.157431 286.157431 0 0 0 86.718509 13.649293c58.760207 0 122.980131-19.70048 152.690092-87.241732l1.114693-3.207584c2.161138-8.007585 20.155456-79.620877-12.648345-121.615202a77.027511 77.027511 0 0 0-64.128929-28.549771H275.423562l18.949768-90.358321h140.542222V634.692131H256.997016z m472.288291-134.718523c57.577268-14.809483 117.042689-2.980096 147.867343 29.323232l33.281526-31.029394c-42.722288-44.61044-118.293874-61.126084-192.773517-42.017074a198.665462 198.665462 0 0 0-149.186774 139.22279c-34.123233 117.952642 22.953561 180.557399 60.034141 207.332763a218.38869 218.38869 0 0 0 124.345061 40.288164 115.291029 115.291029 0 0 0 61.421819-14.627493c79.279644-51.867314 62.400018-169.524221 61.626558-174.528961l-2.911849-19.245504h-148.48156v45.179161h107.715671c0.750711 29.573468-3.526067 85.057845-43.040771 110.900507-18.449295 12.079624-83.169693 11.943131-133.512835-24.432235-33.577261-24.250244-68.246466-71.431301-42.904278-159.128009a155.510947 155.510947 0 0 1 116.519465-107.237947z m-13.649293-158.468293a22.748822 22.748822 0 0 0 22.748822 19.563987 24.477732 24.477732 0 0 0 3.09384-0.20474 22.748822 22.748822 0 0 0 19.654982-25.29669 213.156461 213.156461 0 0 0-420.602968-6.210428 22.885315 22.885315 0 0 0 45.17916 7.370618 167.272087 167.272087 0 0 1 329.926164 4.777253zM229.175207 403.837086a309.133741 309.133741 0 0 1 571.655145 12.466355 23.044557 23.044557 0 0 0 29.436976 13.308061 22.521334 22.521334 0 0 0 13.490051-29.050246 355.154608 355.154608 0 0 0-656.735739-14.309009 22.475836 22.475836 0 0 0 12.170619 29.573469 22.97631 22.97631 0 0 0 29.982948-11.98863z m742.589793-141.042695a532.640916 532.640916 0 0 0-919.91686 2.274882 22.430338 22.430338 0 0 0 8.644552 30.779156 23.067305 23.067305 0 0 0 31.188635-8.530808 486.574552 486.574552 0 0 1 840.341481-2.13839 23.044557 23.044557 0 0 0 31.234133 8.348818 22.40759 22.40759 0 0 0 8.508059-30.779156z" p-id="9671"></path></svg>