<?xml version="1.0" standalone="no"?><!DOCTYPE svg PUBLIC "-//W3C//DTD SVG 1.1//EN" "http://www.w3.org/Graphics/SVG/1.1/DTD/svg11.dtd"><svg t="1560610236136" class="icon" style="" viewBox="0 0 1024 1024" version="1.1" xmlns="http://www.w3.org/2000/svg" p-id="6015" xmlns:xlink="http://www.w3.org/1999/xlink" width="200" height="200"><defs><style type="text/css"></style></defs><path d="M2.133333 471.466667v78.933333c21.333333 262.4 241.066667 471.466667 509.866667 471.466667 281.6 0 509.866667-228.266667 509.866667-509.866667S793.6 0 509.866667 0C241.066667 0 21.333333 206.933333 2.133333 471.466667z" fill="#2B76AE" p-id="6016"></path><path d="M605.866667 386.133333c0-25.6-19.2-44.8-44.8-44.8-23.466667 0-44.8 21.333333-44.8 44.8V533.333333c0 55.466667-44.8 100.266667-98.133334 100.266667-55.466667 0-98.133333-44.8-98.133333-100.266667v-147.2c0-25.6-19.2-44.8-44.8-44.8-23.466667 0-44.8 21.333333-44.8 44.8V533.333333c0 106.666667 83.2 192 187.733333 192s187.733333-85.333333 187.733334-192v-147.2z m145.066666-44.8c-23.466667 0-44.8 21.333333-44.8 44.8v294.4c0 25.6 19.2 44.8 44.8 44.8 23.466667 0 44.8-21.333333 44.8-44.8V386.133333c0-25.6-19.2-44.8-44.8-44.8z" fill="#FFFFFF" p-id="6017"></path></svg>