<?xml version="1.0" standalone="no"?><!DOCTYPE svg PUBLIC "-//W3C//DTD SVG 1.1//EN" "http://www.w3.org/Graphics/SVG/1.1/DTD/svg11.dtd"><svg t="1560612035328" class="icon" style="" viewBox="0 0 1024 1024" version="1.1" xmlns="http://www.w3.org/2000/svg" p-id="11713" xmlns:xlink="http://www.w3.org/1999/xlink" width="200" height="200"><defs><style type="text/css"></style></defs><path d="M512 791.272727c-186.88 0-372.363636-232.680727-372.363636-279.272727 0-46.685091 186.298182-279.272727 372.363636-279.272727 185.483636 0 372.363636 232.704 372.363636 279.272727 0 46.312727-185.972364 279.272727-372.363636 279.272727z m0-512c-162.792727 0-325.818182 193.838545-325.818182 232.727273 0 38.818909 162.304 232.727273 325.818182 232.727273 163.095273 0 325.818182-194.141091 325.818182-232.727273 0-38.795636-163.514182-232.727273-325.818182-232.727273z m0.698182 349.230546a116.363636 116.363636 0 1 1 0.046545-232.750546 116.363636 116.363636 0 0 1-0.023272 232.750546z m0-186.181818a69.818182 69.818182 0 1 0 0 139.61309 69.818182 69.818182 0 0 0 0-139.61309z" fill="#d4237a" p-id="11714"></path></svg>